<svg id="visual" viewBox="0 0 900 600" width="900" height="600" xmlns="http://www.w3.org/2000/svg" xmlns:xlink="http://www.w3.org/1999/xlink" version="1.1"><path d="M0 386L21.5 392C43 398 86 410 128.8 412.2C171.7 414.3 214.3 406.7 257.2 397.8C300 389 343 379 385.8 378.2C428.7 377.3 471.3 385.7 514.2 398.5C557 411.3 600 428.7 642.8 425.5C685.7 422.3 728.3 398.7 771.2 386C814 373.3 857 371.7 878.5 370.8L900 370L900 601L878.5 601C857 601 814 601 771.2 601C728.3 601 685.7 601 642.8 601C600 601 557 601 514.2 601C471.3 601 428.7 601 385.8 601C343 601 300 601 257.2 601C214.3 601 171.7 601 128.8 601C86 601 43 601 21.5 601L0 601Z" fill="#0066ff"></path><path d="M0 434L21.5 435.2C43 436.3 86 438.7 128.8 437.5C171.7 436.3 214.3 431.7 257.2 428.8C300 426 343 425 385.8 425C428.7 425 471.3 426 514.2 431C557 436 600 445 642.8 440.7C685.7 436.3 728.3 418.7 771.2 419.7C814 420.7 857 440.3 878.5 450.2L900 460L900 601L878.5 601C857 601 814 601 771.2 601C728.3 601 685.7 601 642.8 601C600 601 557 601 514.2 601C471.3 601 428.7 601 385.8 601C343 601 300 601 257.2 601C214.3 601 171.7 601 128.8 601C86 601 43 601 21.5 601L0 601Z" fill="#7d57ef"></path><path d="M0 483L21.5 478.2C43 473.3 86 463.7 128.8 466C171.7 468.3 214.3 482.7 257.2 488.8C300 495 343 493 385.8 489.8C428.7 486.7 471.3 482.3 514.2 480.5C557 478.7 600 479.3 642.8 475C685.7 470.7 728.3 461.3 771.2 456.8C814 452.3 857 452.7 878.5 452.8L900 453L900 601L878.5 601C857 601 814 601 771.2 601C728.3 601 685.7 601 642.8 601C600 601 557 601 514.2 601C471.3 601 428.7 601 385.8 601C343 601 300 601 257.2 601C214.3 601 171.7 601 128.8 601C86 601 43 601 21.5 601L0 601Z" fill="#ad46da"></path><path d="M0 542L21.5 538.5C43 535 86 528 128.8 527.2C171.7 526.3 214.3 531.7 257.2 528.8C300 526 343 515 385.8 512.2C428.7 509.3 471.3 514.7 514.2 517.8C557 521 600 522 642.8 524.7C685.7 527.3 728.3 531.7 771.2 531.8C814 532 857 528 878.5 526L900 524L900 601L878.5 601C857 601 814 601 771.2 601C728.3 601 685.7 601 642.8 601C600 601 557 601 514.2 601C471.3 601 428.7 601 385.8 601C343 601 300 601 257.2 601C214.3 601 171.7 601 128.8 601C86 601 43 601 21.5 601L0 601Z" fill="#cd32c2"></path><path d="M0 573L21.5 566.8C43 560.7 86 548.3 128.8 545.3C171.7 542.3 214.3 548.7 257.2 553C300 557.3 343 559.7 385.8 557.2C428.7 554.7 471.3 547.3 514.2 545.5C557 543.7 600 547.3 642.8 549.7C685.7 552 728.3 553 771.2 555.7C814 558.3 857 562.7 878.5 564.8L900 567L900 601L878.5 601C857 601 814 601 771.2 601C728.3 601 685.7 601 642.8 601C600 601 557 601 514.2 601C471.3 601 428.7 601 385.8 601C343 601 300 601 257.2 601C214.3 601 171.7 601 128.8 601C86 601 43 601 21.5 601L0 601Z" fill="#e31ca7"></path></svg>