<svg id="visual" viewBox="0 0 900 600" width="900" height="600" xmlns="http://www.w3.org/2000/svg" xmlns:xlink="http://www.w3.org/1999/xlink" version="1.1"><path d="M0 442L21.5 442.5C43 443 86 444 128.8 432.7C171.7 421.3 214.3 397.7 257.2 396.3C300 395 343 416 385.8 423C428.7 430 471.3 423 514.2 419C557 415 600 414 642.8 409.3C685.7 404.7 728.3 396.3 771.2 390.2C814 384 857 380 878.5 378L900 376L900 601L878.5 601C857 601 814 601 771.2 601C728.3 601 685.7 601 642.8 601C600 601 557 601 514.2 601C471.3 601 428.7 601 385.8 601C343 601 300 601 257.2 601C214.3 601 171.7 601 128.8 601C86 601 43 601 21.5 601L0 601Z" fill="#0066ff"></path><path d="M0 466L21.5 461.3C43 456.7 86 447.3 128.8 439.3C171.7 431.3 214.3 424.7 257.2 425.3C300 426 343 434 385.8 431.7C428.7 429.3 471.3 416.7 514.2 417.7C557 418.7 600 433.3 642.8 443.7C685.7 454 728.3 460 771.2 454.8C814 449.7 857 433.3 878.5 425.2L900 417L900 601L878.5 601C857 601 814 601 771.2 601C728.3 601 685.7 601 642.8 601C600 601 557 601 514.2 601C471.3 601 428.7 601 385.8 601C343 601 300 601 257.2 601C214.3 601 171.7 601 128.8 601C86 601 43 601 21.5 601L0 601Z" fill="#7d57ef"></path><path d="M0 449L21.5 448.5C43 448 86 447 128.8 450.3C171.7 453.7 214.3 461.3 257.2 463.8C300 466.3 343 463.7 385.8 462.5C428.7 461.3 471.3 461.7 514.2 467.3C557 473 600 484 642.8 480.2C685.7 476.3 728.3 457.7 771.2 453.8C814 450 857 461 878.5 466.5L900 472L900 601L878.5 601C857 601 814 601 771.2 601C728.3 601 685.7 601 642.8 601C600 601 557 601 514.2 601C471.3 601 428.7 601 385.8 601C343 601 300 601 257.2 601C214.3 601 171.7 601 128.8 601C86 601 43 601 21.5 601L0 601Z" fill="#ad46da"></path><path d="M0 500L21.5 503C43 506 86 512 128.8 518C171.7 524 214.3 530 257.2 527.8C300 525.7 343 515.3 385.8 506.5C428.7 497.7 471.3 490.3 514.2 494.2C557 498 600 513 642.8 521.2C685.7 529.3 728.3 530.7 771.2 522.8C814 515 857 498 878.5 489.5L900 481L900 601L878.5 601C857 601 814 601 771.2 601C728.3 601 685.7 601 642.8 601C600 601 557 601 514.2 601C471.3 601 428.7 601 385.8 601C343 601 300 601 257.2 601C214.3 601 171.7 601 128.8 601C86 601 43 601 21.5 601L0 601Z" fill="#cd32c2"></path><path d="M0 570L21.5 569.7C43 569.3 86 568.7 128.8 565C171.7 561.3 214.3 554.7 257.2 552.3C300 550 343 552 385.8 551.5C428.7 551 471.3 548 514.2 544.3C557 540.7 600 536.3 642.8 537.5C685.7 538.7 728.3 545.3 771.2 544.3C814 543.3 857 534.7 878.5 530.3L900 526L900 601L878.5 601C857 601 814 601 771.2 601C728.3 601 685.7 601 642.8 601C600 601 557 601 514.2 601C471.3 601 428.7 601 385.8 601C343 601 300 601 257.2 601C214.3 601 171.7 601 128.8 601C86 601 43 601 21.5 601L0 601Z" fill="#e31ca7"></path></svg>