<svg id="visual" viewBox="0 0 900 600" width="900" height="600" xmlns="http://www.w3.org/2000/svg" xmlns:xlink="http://www.w3.org/1999/xlink" version="1.1"><path d="M0 410L21.5 409.8C43 409.7 86 409.3 128.8 403.3C171.7 397.3 214.3 385.7 257.2 385.7C300 385.7 343 397.3 385.8 405.7C428.7 414 471.3 419 514.2 411.2C557 403.3 600 382.7 642.8 379.3C685.7 376 728.3 390 771.2 403.3C814 416.7 857 429.3 878.5 435.7L900 442L900 601L878.5 601C857 601 814 601 771.2 601C728.3 601 685.7 601 642.8 601C600 601 557 601 514.2 601C471.3 601 428.7 601 385.8 601C343 601 300 601 257.2 601C214.3 601 171.7 601 128.8 601C86 601 43 601 21.5 601L0 601Z" fill="#0066ff"></path><path d="M0 404L21.5 414C43 424 86 444 128.8 445.3C171.7 446.7 214.3 429.3 257.2 417.5C300 405.7 343 399.3 385.8 397.3C428.7 395.3 471.3 397.7 514.2 407.7C557 417.7 600 435.3 642.8 434.5C685.7 433.7 728.3 414.3 771.2 410.8C814 407.3 857 419.7 878.5 425.8L900 432L900 601L878.5 601C857 601 814 601 771.2 601C728.3 601 685.7 601 642.8 601C600 601 557 601 514.2 601C471.3 601 428.7 601 385.8 601C343 601 300 601 257.2 601C214.3 601 171.7 601 128.8 601C86 601 43 601 21.5 601L0 601Z" fill="#7d57ef"></path><path d="M0 481L21.5 481.3C43 481.7 86 482.3 128.8 481.2C171.7 480 214.3 477 257.2 480.2C300 483.3 343 492.7 385.8 493C428.7 493.3 471.3 484.7 514.2 482.8C557 481 600 486 642.8 484.8C685.7 483.7 728.3 476.3 771.2 476.3C814 476.3 857 483.7 878.5 487.3L900 491L900 601L878.5 601C857 601 814 601 771.2 601C728.3 601 685.7 601 642.8 601C600 601 557 601 514.2 601C471.3 601 428.7 601 385.8 601C343 601 300 601 257.2 601C214.3 601 171.7 601 128.8 601C86 601 43 601 21.5 601L0 601Z" fill="#ad46da"></path><path d="M0 529L21.5 526.8C43 524.7 86 520.3 128.8 512.3C171.7 504.3 214.3 492.7 257.2 492.3C300 492 343 503 385.8 506C428.7 509 471.3 504 514.2 499.8C557 495.7 600 492.3 642.8 492.5C685.7 492.7 728.3 496.3 771.2 499.5C814 502.7 857 505.3 878.5 506.7L900 508L900 601L878.5 601C857 601 814 601 771.2 601C728.3 601 685.7 601 642.8 601C600 601 557 601 514.2 601C471.3 601 428.7 601 385.8 601C343 601 300 601 257.2 601C214.3 601 171.7 601 128.8 601C86 601 43 601 21.5 601L0 601Z" fill="#cd32c2"></path><path d="M0 541L21.5 544.8C43 548.7 86 556.3 128.8 556.7C171.7 557 214.3 550 257.2 548C300 546 343 549 385.8 552.3C428.7 555.7 471.3 559.3 514.2 562C557 564.7 600 566.3 642.8 563.5C685.7 560.7 728.3 553.3 771.2 546.8C814 540.3 857 534.7 878.5 531.8L900 529L900 601L878.5 601C857 601 814 601 771.2 601C728.3 601 685.7 601 642.8 601C600 601 557 601 514.2 601C471.3 601 428.7 601 385.8 601C343 601 300 601 257.2 601C214.3 601 171.7 601 128.8 601C86 601 43 601 21.5 601L0 601Z" fill="#e31ca7"></path></svg>