<svg id="visual" viewBox="0 0 900 600" width="900" height="600" xmlns="http://www.w3.org/2000/svg" xmlns:xlink="http://www.w3.org/1999/xlink" version="1.1"><path d="M0 439L21.5 433.3C43 427.7 86 416.3 128.8 416.7C171.7 417 214.3 429 257.2 425C300 421 343 401 385.8 387C428.7 373 471.3 365 514.2 367.8C557 370.7 600 384.3 642.8 388.2C685.7 392 728.3 386 771.2 381.7C814 377.3 857 374.7 878.5 373.3L900 372L900 601L878.5 601C857 601 814 601 771.2 601C728.3 601 685.7 601 642.8 601C600 601 557 601 514.2 601C471.3 601 428.7 601 385.8 601C343 601 300 601 257.2 601C214.3 601 171.7 601 128.8 601C86 601 43 601 21.5 601L0 601Z" fill="#0066ff"></path><path d="M0 412L21.5 420.2C43 428.3 86 444.7 128.8 449C171.7 453.3 214.3 445.7 257.2 434.8C300 424 343 410 385.8 408.5C428.7 407 471.3 418 514.2 429.7C557 441.3 600 453.7 642.8 451C685.7 448.3 728.3 430.7 771.2 423.2C814 415.7 857 418.3 878.5 419.7L900 421L900 601L878.5 601C857 601 814 601 771.2 601C728.3 601 685.7 601 642.8 601C600 601 557 601 514.2 601C471.3 601 428.7 601 385.8 601C343 601 300 601 257.2 601C214.3 601 171.7 601 128.8 601C86 601 43 601 21.5 601L0 601Z" fill="#7d57ef"></path><path d="M0 441L21.5 444.5C43 448 86 455 128.8 454.5C171.7 454 214.3 446 257.2 452.3C300 458.7 343 479.3 385.8 489C428.7 498.7 471.3 497.3 514.2 491.5C557 485.7 600 475.3 642.8 476C685.7 476.7 728.3 488.3 771.2 492.7C814 497 857 494 878.5 492.5L900 491L900 601L878.5 601C857 601 814 601 771.2 601C728.3 601 685.7 601 642.8 601C600 601 557 601 514.2 601C471.3 601 428.7 601 385.8 601C343 601 300 601 257.2 601C214.3 601 171.7 601 128.8 601C86 601 43 601 21.5 601L0 601Z" fill="#ad46da"></path><path d="M0 485L21.5 489.8C43 494.7 86 504.3 128.8 509C171.7 513.7 214.3 513.3 257.2 517.2C300 521 343 529 385.8 524.7C428.7 520.3 471.3 503.7 514.2 500.8C557 498 600 509 642.8 516.7C685.7 524.3 728.3 528.7 771.2 527.8C814 527 857 521 878.5 518L900 515L900 601L878.5 601C857 601 814 601 771.2 601C728.3 601 685.7 601 642.8 601C600 601 557 601 514.2 601C471.3 601 428.7 601 385.8 601C343 601 300 601 257.2 601C214.3 601 171.7 601 128.8 601C86 601 43 601 21.5 601L0 601Z" fill="#cd32c2"></path><path d="M0 533L21.5 538C43 543 86 553 128.8 559.2C171.7 565.3 214.3 567.7 257.2 565C300 562.3 343 554.7 385.8 552.7C428.7 550.7 471.3 554.3 514.2 553.2C557 552 600 546 642.8 543.7C685.7 541.3 728.3 542.7 771.2 548.2C814 553.7 857 563.3 878.5 568.2L900 573L900 601L878.5 601C857 601 814 601 771.2 601C728.3 601 685.7 601 642.8 601C600 601 557 601 514.2 601C471.3 601 428.7 601 385.8 601C343 601 300 601 257.2 601C214.3 601 171.7 601 128.8 601C86 601 43 601 21.5 601L0 601Z" fill="#e31ca7"></path></svg>