<svg id="visual" viewBox="0 0 900 600" width="900" height="600" xmlns="http://www.w3.org/2000/svg" xmlns:xlink="http://www.w3.org/1999/xlink" version="1.1"><path d="M0 497L21.5 499C43 501 86 505 128.8 505C171.7 505 214.3 501 257.2 501.2C300 501.3 343 505.7 385.8 509C428.7 512.3 471.3 514.7 514.2 515.2C557 515.7 600 514.3 642.8 515.7C685.7 517 728.3 521 771.2 520.7C814 520.3 857 515.7 878.5 513.3L900 511L900 601L878.5 601C857 601 814 601 771.2 601C728.3 601 685.7 601 642.8 601C600 601 557 601 514.2 601C471.3 601 428.7 601 385.8 601C343 601 300 601 257.2 601C214.3 601 171.7 601 128.8 601C86 601 43 601 21.5 601L0 601Z" fill="#0066ff"></path><path d="M0 537L21.5 537.2C43 537.3 86 537.7 128.8 534.8C171.7 532 214.3 526 257.2 522C300 518 343 516 385.8 516.8C428.7 517.7 471.3 521.3 514.2 523C557 524.7 600 524.3 642.8 523.2C685.7 522 728.3 520 771.2 522.2C814 524.3 857 530.7 878.5 533.8L900 537L900 601L878.5 601C857 601 814 601 771.2 601C728.3 601 685.7 601 642.8 601C600 601 557 601 514.2 601C471.3 601 428.7 601 385.8 601C343 601 300 601 257.2 601C214.3 601 171.7 601 128.8 601C86 601 43 601 21.5 601L0 601Z" fill="#7d57ef"></path><path d="M0 551L21.5 550C43 549 86 547 128.8 548C171.7 549 214.3 553 257.2 552.5C300 552 343 547 385.8 543C428.7 539 471.3 536 514.2 534.8C557 533.7 600 534.3 642.8 534.7C685.7 535 728.3 535 771.2 535C814 535 857 535 878.5 535L900 535L900 601L878.5 601C857 601 814 601 771.2 601C728.3 601 685.7 601 642.8 601C600 601 557 601 514.2 601C471.3 601 428.7 601 385.8 601C343 601 300 601 257.2 601C214.3 601 171.7 601 128.8 601C86 601 43 601 21.5 601L0 601Z" fill="#ad46da"></path><path d="M0 551L21.5 552.8C43 554.7 86 558.3 128.8 559.2C171.7 560 214.3 558 257.2 559.2C300 560.3 343 564.7 385.8 567C428.7 569.3 471.3 569.7 514.2 569.3C557 569 600 568 642.8 567.7C685.7 567.3 728.3 567.7 771.2 565C814 562.3 857 556.7 878.5 553.8L900 551L900 601L878.5 601C857 601 814 601 771.2 601C728.3 601 685.7 601 642.8 601C600 601 557 601 514.2 601C471.3 601 428.7 601 385.8 601C343 601 300 601 257.2 601C214.3 601 171.7 601 128.8 601C86 601 43 601 21.5 601L0 601Z" fill="#cd32c2"></path><path d="M0 570L21.5 573C43 576 86 582 128.8 584C171.7 586 214.3 584 257.2 582.2C300 580.3 343 578.7 385.8 577.2C428.7 575.7 471.3 574.3 514.2 573.5C557 572.7 600 572.3 642.8 573.8C685.7 575.3 728.3 578.7 771.2 578.3C814 578 857 574 878.5 572L900 570L900 601L878.5 601C857 601 814 601 771.2 601C728.3 601 685.7 601 642.8 601C600 601 557 601 514.2 601C471.3 601 428.7 601 385.8 601C343 601 300 601 257.2 601C214.3 601 171.7 601 128.8 601C86 601 43 601 21.5 601L0 601Z" fill="#e31ca7"></path></svg>